<svg width="32" height="32" viewBox="0 0 32 32" fill="none" xmlns="http://www.w3.org/2000/svg">
  <defs>
    <linearGradient id="g" x1="0%" y1="0%" x2="100%" y2="100%">
      <stop offset="0%" stop-color="#2563eb"/>
      <stop offset="100%" stop-color="#9333ea"/>
    </linearGradient>
  </defs>
  <rect width="32" height="32" rx="6" fill="url(#g)"/>
  <path d="M 10 9 Q 8 9 8 11 Q 8 13 10 13 L 18 13 Q 20 13 20 15 Q 20 17 18 17 L 12 17 Q 11 17 11 18 L 11 19 L 20 19 Q 24 19 24 15 Q 24 11 20 11 L 14 11 Q 12 11 12 9 Q 12 7 14 7 L 22 7 L 22 6 L 10 6 Q 6 6 6 10 L 8 10 Q 8 9 10 9 Z" fill="white"/>
  <circle cx="25" cy="12" r="1" fill="white" opacity="0.6"/>
  <circle cx="7" cy="24" r="1" fill="white" opacity="0.6"/>
</svg>
