<svg width="512" height="512" viewBox="0 0 512 512" fill="none" xmlns="http://www.w3.org/2000/svg">
  <defs>
    <linearGradient id="gradient" x1="0%" y1="0%" x2="100%" y2="100%">
      <stop offset="0%" style="stop-color:#2563eb;stop-opacity:1" />
      <stop offset="100%" style="stop-color:#9333ea;stop-opacity:1" />
    </linearGradient>
  </defs>

  <!-- Background circle -->
  <circle cx="256" cy="256" r="240" fill="url(#gradient)"/>

  <!-- Stylized 'S' with AI layers/strata -->
  <path d="M 180 160 Q 140 160 140 200 Q 140 240 180 240 L 280 240 Q 320 240 320 280 Q 320 320 280 320 L 200 320 Q 180 320 180 340 L 180 360 L 320 360 Q 380 360 380 300 Q 380 240 320 240 L 220 240 Q 180 240 180 200 Q 180 160 220 160 L 300 160 Q 320 160 320 140 L 320 120 L 180 120 Q 120 120 120 180 L 160 180 Q 160 160 180 160 Z"
        fill="white"
        opacity="0.95"/>

  <!-- AI Circuit lines -->
  <path d="M 350 150 L 380 150 L 380 180"
        stroke="white"
        stroke-width="8"
        stroke-linecap="round"
        opacity="0.6"/>
  <circle cx="390" cy="190" r="6" fill="white" opacity="0.6"/>

  <path d="M 130 360 L 100 360 L 100 330"
        stroke="white"
        stroke-width="8"
        stroke-linecap="round"
        opacity="0.6"/>
  <circle cx="90" cy="320" r="6" fill="white" opacity="0.6"/>

  <!-- Dots pattern suggesting AI/data -->
  <circle cx="360" cy="250" r="5" fill="white" opacity="0.4"/>
  <circle cx="380" cy="270" r="4" fill="white" opacity="0.4"/>
  <circle cx="370" cy="290" r="4" fill="white" opacity="0.4"/>

  <circle cx="140" cy="270" r="5" fill="white" opacity="0.4"/>
  <circle cx="120" cy="250" r="4" fill="white" opacity="0.4"/>
  <circle cx="130" cy="230" r="4" fill="white" opacity="0.4"/>
</svg>
